<svg width="28" height="28" viewBox="0 0 28 28" fill="none" xmlns="http://www.w3.org/2000/svg">
<path d="M22.3438 25.7812C24.2422 25.7812 25.7813 24.2422 25.7813 22.3437V12.9779L17.8993 17.5863L21.8918 19.7361C22.3097 19.9612 22.4661 20.4823 22.241 20.9002C22.016 21.3181 21.4948 21.4745 21.0769 21.2495L14.5649 17.7429C14.0562 17.469 13.4439 17.469 12.9351 17.7429L6.42305 21.2495C6.00517 21.4745 5.48399 21.3181 5.25897 20.9002C5.03395 20.4823 5.19031 19.9612 5.6082 19.7361L9.60069 17.5863L1.71875 12.9779V22.3437C1.71875 24.2422 3.25777 25.7812 5.15625 25.7812L22.3438 25.7812Z" fill="#3D3E3E"/>
<path d="M1.71875 10.987V10.1336C1.71875 8.86903 2.41309 7.70655 3.52653 7.10701L12.1203 2.47961C13.1377 1.93177 14.3623 1.93177 15.3797 2.47961L23.9735 7.10701C25.0869 7.70656 25.7813 8.86904 25.7813 10.1336V10.987L16.1266 16.6318L15.3797 16.2296C14.3623 15.6818 13.1377 15.6818 12.1203 16.2296L11.3734 16.6318L1.71875 10.987Z" fill="#3D3E3E"/>
</svg>
