<svg width="28" height="28" viewBox="0 0 28 28" fill="none" xmlns="http://www.w3.org/2000/svg">
<path d="M6.31011 4.6379C6.96318 3.876 7.91657 3.4375 8.92006 3.4375H18.5798C19.5833 3.4375 20.5366 3.876 21.1897 4.6379L23.1627 6.93968C22.8959 6.89711 22.6224 6.875 22.3437 6.875H5.15616C4.87744 6.875 4.60389 6.89711 4.33716 6.93968L6.31011 4.6379Z" fill="#3D3E3E"/>
<path fill-rule="evenodd" clip-rule="evenodd" d="M1.71875 12.0312C1.71875 10.1328 3.25777 8.59375 5.15625 8.59375H22.3438C24.2422 8.59375 25.7812 10.1328 25.7812 12.0312C25.7812 13.9297 24.2422 15.4688 22.3438 15.4688H5.15625C3.25777 15.4688 1.71875 13.9297 1.71875 12.0312ZM18.9062 12.0312C18.9062 12.5059 18.5215 12.8906 18.0469 12.8906C17.5723 12.8906 17.1875 12.5059 17.1875 12.0312C17.1875 11.5566 17.5723 11.1719 18.0469 11.1719C18.5215 11.1719 18.9062 11.5566 18.9062 12.0312ZM21.4844 12.8906C21.959 12.8906 22.3438 12.5059 22.3438 12.0312C22.3438 11.5566 21.959 11.1719 21.4844 11.1719C21.0098 11.1719 20.625 11.5566 20.625 12.0312C20.625 12.5059 21.0098 12.8906 21.4844 12.8906Z" fill="#3D3E3E"/>
<path fill-rule="evenodd" clip-rule="evenodd" d="M5.15625 17.1875C3.25777 17.1875 1.71875 18.7265 1.71875 20.625C1.71875 22.5235 3.25777 24.0625 5.15625 24.0625H22.3438C24.2422 24.0625 25.7812 22.5235 25.7812 20.625C25.7812 18.7265 24.2422 17.1875 22.3438 17.1875H5.15625ZM18.0469 21.4844C18.5215 21.4844 18.9062 21.0996 18.9062 20.625C18.9062 20.1504 18.5215 19.7656 18.0469 19.7656C17.5723 19.7656 17.1875 20.1504 17.1875 20.625C17.1875 21.0996 17.5723 21.4844 18.0469 21.4844ZM22.3438 20.625C22.3438 21.0996 21.959 21.4844 21.4844 21.4844C21.0098 21.4844 20.625 21.0996 20.625 20.625C20.625 20.1504 21.0098 19.7656 21.4844 19.7656C21.959 19.7656 22.3438 20.1504 22.3438 20.625Z" fill="#3D3E3E"/>
</svg>
