<svg width="15" height="15" viewBox="0 0 15 15" fill="none" xmlns="http://www.w3.org/2000/svg">
<path d="M7.66297 4.29278C5.65903 4.29278 4.04264 5.9116 4.04264 7.91856C4.04264 9.92552 5.65903 11.5443 7.66297 11.5443C9.66692 11.5443 11.2833 9.92552 11.2833 7.91856C11.2833 5.9116 9.66692 4.29278 7.66297 4.29278ZM7.66297 10.2758C6.36797 10.2758 5.30929 9.21867 5.30929 7.91856C5.30929 6.61846 6.36482 5.56133 7.66297 5.56133C8.96113 5.56133 10.0167 6.61846 10.0167 7.91856C10.0167 9.21867 8.95798 10.2758 7.66297 10.2758ZM12.2758 4.14447C12.2758 4.61465 11.8977 4.99017 11.4314 4.99017C10.9619 4.99017 10.587 4.6115 10.587 4.14447C10.587 3.67744 10.9651 3.29877 11.4314 3.29877C11.8977 3.29877 12.2758 3.67744 12.2758 4.14447ZM14.6736 5.00279C14.6201 3.86993 14.3617 2.86645 13.533 2.03968C12.7075 1.21292 11.7055 0.954158 10.5744 0.897357C9.40855 0.831089 5.91425 0.831089 4.74843 0.897357C3.62043 0.951002 2.61846 1.20976 1.78978 2.03653C0.961109 2.86329 0.70589 3.86677 0.649174 4.99963C0.583006 6.16721 0.583006 9.66676 0.649174 10.8343C0.702739 11.9672 0.961109 12.9707 1.78978 13.7974C2.61846 14.6242 3.61728 14.883 4.74843 14.9398C5.91425 15.006 9.40855 15.006 10.5744 14.9398C11.7055 14.8861 12.7075 14.6274 13.533 13.7974C14.3585 12.9707 14.6169 11.9672 14.6736 10.8343C14.7398 9.66676 14.7398 6.17036 14.6736 5.00279ZM13.1675 12.0871C12.9217 12.7056 12.446 13.1821 11.8253 13.4314C10.8958 13.8006 8.69015 13.7154 7.66297 13.7154C6.6358 13.7154 4.42705 13.7974 3.5007 13.4314C2.88313 13.1853 2.40735 12.7088 2.15843 12.0871C1.78978 11.1562 1.87486 8.94729 1.87486 7.91856C1.87486 6.88984 1.79293 4.67776 2.15843 3.75002C2.4042 3.13152 2.87998 2.65503 3.5007 2.40573C4.4302 2.03653 6.6358 2.12173 7.66297 2.12173C8.69015 2.12173 10.8989 2.03968 11.8253 2.40573C12.4428 2.65187 12.9186 3.12836 13.1675 3.75002C13.5362 4.68092 13.4511 6.88984 13.4511 7.91856C13.4511 8.94729 13.5362 11.1594 13.1675 12.0871Z" fill="white" fill-opacity="0.5"/>
</svg>
