<svg width="15" height="17" viewBox="0 0 15 17" fill="none" xmlns="http://www.w3.org/2000/svg">
<g clip-path="url(#clip0_22_1677)">
<path d="M12.5077 3.78116C11.2 2.44301 9.45844 1.70703 7.60766 1.70703C3.78749 1.70703 0.678929 4.88036 0.678929 8.78011C0.678929 10.0259 0.997276 11.2429 1.60276 12.3166L0.619629 15.9806L4.2931 14.9961C5.30432 15.5601 6.44351 15.8564 7.60454 15.8564H7.60766C11.4247 15.8564 14.6019 12.683 14.6019 8.78329C14.6019 6.89395 13.8154 5.11931 12.5077 3.78116ZM7.60766 14.6648C6.57147 14.6648 5.55713 14.3812 4.67387 13.846L4.46476 13.7185L2.28627 14.3016L2.86678 12.1319L2.72946 11.9088C2.15206 10.9721 1.84932 9.89205 1.84932 8.78011C1.84932 5.53987 4.43355 2.90181 7.61078 2.90181C9.14945 2.90181 10.5945 3.51353 11.6806 4.62547C12.7667 5.73741 13.4347 7.21256 13.4315 8.78329C13.4315 12.0267 10.7818 14.6648 7.60766 14.6648ZM10.7662 10.2616C10.5945 10.1724 9.74245 9.74549 9.58328 9.68814C9.42411 9.6276 9.30863 9.59893 9.19315 9.77735C9.07767 9.95577 8.74684 10.3508 8.64385 10.4719C8.54397 10.5898 8.44098 10.6057 8.26932 10.5165C7.25186 9.99719 6.58395 9.58937 5.91293 8.41371C5.73503 8.10147 6.09083 8.12378 6.42166 7.44833C6.47784 7.33045 6.44975 7.22849 6.40605 7.13928C6.36236 7.05007 6.01592 6.18027 5.87235 5.82662C5.73191 5.48252 5.58834 5.53032 5.48222 5.52394C5.38235 5.51757 5.26687 5.51757 5.15139 5.51757C5.03591 5.51757 4.84865 5.56218 4.68948 5.73741C4.5303 5.91583 4.08399 6.34276 4.08399 7.21256C4.08399 8.08236 4.70508 8.92348 4.78935 9.04137C4.87674 9.15925 6.00968 10.9434 7.7481 11.7113C8.84671 12.1956 9.27742 12.237 9.82672 12.1542C10.1607 12.1032 10.8504 11.7272 10.994 11.313C11.1376 10.8988 11.1376 10.5452 11.0939 10.4719C11.0533 10.3923 10.9378 10.3477 10.7662 10.2616Z" fill="white" fill-opacity="0.5"/>
</g>
<defs>
<clipPath id="clip0_22_1677">
<rect width="13.9823" height="16.3127" fill="white" transform="translate(0.619629 0.6875)"/>
</clipPath>
</defs>
</svg>
