<svg width="15" height="15" viewBox="0 0 15 15" fill="none" xmlns="http://www.w3.org/2000/svg">
<path d="M7.50012 7.49492C7.24122 7.49492 7.03135 7.70478 7.03135 7.96365V7.96717C7.03135 8.22604 7.24122 8.4359 7.50012 8.4359H7.50363C7.76253 8.4359 7.97241 8.22604 7.97241 7.96717V7.96365C7.97241 7.70478 7.76253 7.49492 7.50363 7.49492H7.50012Z" fill="#4E4D4D"/>
<path d="M7.49966 10.3074C7.24077 10.3074 7.03089 10.5173 7.03089 10.7762V10.7797C7.03089 11.0386 7.24077 11.2484 7.49966 11.2484H7.50318C7.76207 11.2484 7.97195 11.0386 7.97195 10.7797V10.7762C7.97195 10.5173 7.76207 10.3074 7.50318 10.3074H7.49966Z" fill="#4E4D4D"/>
<path d="M5.62416 10.7766C5.62416 10.5178 5.83404 10.3079 6.09293 10.3079H6.09645C6.35534 10.3079 6.56522 10.5178 6.56522 10.7766V10.7802C6.56522 11.039 6.35534 11.2489 6.09645 11.2489H6.09293C5.83404 11.2489 5.62416 11.039 5.62416 10.7802V10.7766Z" fill="#4E4D4D"/>
<path d="M4.68666 10.3074C4.42777 10.3074 4.21789 10.5173 4.21789 10.7762V10.7797C4.21789 11.0386 4.42777 11.2484 4.68666 11.2484H4.69018C4.94907 11.2484 5.15895 11.0386 5.15895 10.7797V10.7762C5.15895 10.5173 4.94907 10.3074 4.69018 10.3074H4.68666Z" fill="#4E4D4D"/>
<path d="M8.4367 9.37209C8.4367 9.11322 8.64658 8.90336 8.90547 8.90336H8.90899C9.16788 8.90336 9.37776 9.11322 9.37776 9.37209V9.37561C9.37776 9.63448 9.16788 9.84434 8.90899 9.84434H8.90547C8.64658 9.84434 8.4367 9.63448 8.4367 9.37561V9.37209Z" fill="#4E4D4D"/>
<path d="M8.90593 10.3079C8.64704 10.3079 8.43716 10.5178 8.43716 10.7766V10.7802C8.43716 11.039 8.64704 11.2489 8.90593 11.2489H8.90945C9.16834 11.2489 9.37822 11.039 9.37822 10.7802V10.7766C9.37822 10.5178 9.16834 10.3079 8.90945 10.3079H8.90593Z" fill="#4E4D4D"/>
<path d="M9.84343 9.37117C9.84343 9.1123 10.0533 8.90245 10.3122 8.90245H10.3157C10.5746 8.90245 10.7845 9.1123 10.7845 9.37117V9.37469C10.7845 9.63356 10.5746 9.84342 10.3157 9.84342H10.3122C10.0533 9.84342 9.84343 9.63356 9.84343 9.37469V9.37117Z" fill="#4E4D4D"/>
<path d="M8.4362 7.96367C8.4362 7.70479 8.64607 7.49494 8.90497 7.49494H10.3112C10.5701 7.49494 10.78 7.70479 10.78 7.96367C10.78 8.22254 10.5701 8.4324 10.3112 8.4324H8.90497C8.64607 8.4324 8.4362 8.22254 8.4362 7.96367Z" fill="#4E4D4D"/>
<path d="M4.21745 9.36992C4.21745 9.11104 4.42732 8.90119 4.68622 8.90119H7.49872C7.75761 8.90119 7.96749 9.11104 7.96749 9.36992C7.96749 9.62879 7.75761 9.83865 7.49872 9.83865H4.68622C4.42732 9.83865 4.21745 9.62879 4.21745 9.36992Z" fill="#4E4D4D"/>
<path fill-rule="evenodd" clip-rule="evenodd" d="M11.2499 1.87059C11.2499 1.61171 11.04 1.40186 10.7811 1.40186C10.5222 1.40186 10.3123 1.61171 10.3123 1.87059V2.80732H4.68715V1.87142C4.68715 1.61255 4.47727 1.40269 4.21838 1.40269C3.95948 1.40269 3.74961 1.61255 3.74961 1.87142V2.80732H3.27999C2.24441 2.80732 1.40491 3.64675 1.40491 4.68224V11.7136C1.40491 12.7491 2.24441 13.5885 3.27999 13.5885H11.7174C12.7529 13.5885 13.5924 12.7491 13.5924 11.7136V4.68224C13.5924 3.64675 12.7529 2.80732 11.7174 2.80732H11.2499V1.87059ZM2.34245 11.7136V7.02629C2.34245 6.50855 2.7622 6.08883 3.27999 6.08883H11.7174C12.2352 6.08883 12.6549 6.50855 12.6549 7.02629V11.7136C12.6549 12.2314 12.2352 12.6511 11.7174 12.6511H3.27999C2.7622 12.6511 2.34245 12.2314 2.34245 11.7136Z" fill="#4E4D4D"/>
</svg>
