<svg width="15" height="15" viewBox="0 0 15 15" fill="none" xmlns="http://www.w3.org/2000/svg">
<path d="M13.125 3.98438C13.125 5.66712 10.6066 7.03125 7.5 7.03125C4.3934 7.03125 1.875 5.66712 1.875 3.98438C1.875 2.30163 4.3934 0.9375 7.5 0.9375C10.6066 0.9375 13.125 2.30163 13.125 3.98438Z" fill="#4E4D4D"/>
<path d="M7.5 7.96875C9.17824 7.96875 10.7441 7.6023 11.924 6.96318C12.3552 6.72959 12.7655 6.44021 13.1092 6.09796C13.1197 6.17394 13.125 6.2507 13.125 6.32813C13.125 8.01087 10.6066 9.375 7.5 9.375C4.3934 9.375 1.875 8.01087 1.875 6.32813C1.875 6.2507 1.88033 6.17394 1.89081 6.09796C2.23452 6.44021 2.64476 6.72959 3.07601 6.96318C4.25593 7.6023 5.82176 7.96875 7.5 7.96875Z" fill="#4E4D4D"/>
<path d="M7.5 10.3125C9.17824 10.3125 10.7441 9.94605 11.924 9.30692C12.3552 9.07333 12.7655 8.78395 13.1092 8.44171C13.1197 8.51769 13.125 8.59444 13.125 8.67187C13.125 10.3546 10.6066 11.7187 7.5 11.7187C4.3934 11.7187 1.875 10.3546 1.875 8.67187C1.875 8.59444 1.88033 8.51769 1.89081 8.44171C2.23452 8.78395 2.64476 9.07333 3.07601 9.30692C4.25593 9.94605 5.82176 10.3125 7.5 10.3125Z" fill="#4E4D4D"/>
<path d="M7.5 12.6562C9.17824 12.6562 10.7441 12.2898 11.924 11.6507C12.3552 11.4171 12.7655 11.1277 13.1092 10.7855C13.1197 10.8614 13.125 10.9382 13.125 11.0156C13.125 12.6984 10.6066 14.0625 7.5 14.0625C4.3934 14.0625 1.875 12.6984 1.875 11.0156C1.875 10.9382 1.88033 10.8614 1.89081 10.7855C2.23452 11.1277 2.64476 11.4171 3.07601 11.6507C4.25593 12.2898 5.82176 12.6562 7.5 12.6562Z" fill="#4E4D4D"/>
</svg>
