<svg width="14" height="14" viewBox="0 0 14 14" fill="none" xmlns="http://www.w3.org/2000/svg">
<path fill-rule="evenodd" clip-rule="evenodd" d="M3.28125 0.875H5.25C6.45812 0.875 7.4375 1.85438 7.4375 3.0625V4.15625C7.4375 4.76031 7.92719 5.25 8.53125 5.25H9.625C10.8331 5.25 11.8125 6.22938 11.8125 7.4375V12.0312C11.8125 12.6353 11.3228 13.125 10.7188 13.125H3.28125C2.67719 13.125 2.1875 12.6353 2.1875 12.0312V1.96875C2.1875 1.36469 2.67719 0.875 3.28125 0.875ZM5.6875 10.0625C5.6875 9.82088 5.49162 9.625 5.25 9.625C5.00838 9.625 4.8125 9.82088 4.8125 10.0625V10.5C4.8125 10.7416 5.00838 10.9375 5.25 10.9375C5.49162 10.9375 5.6875 10.7416 5.6875 10.5V10.0625ZM7 8.3125C7.24162 8.3125 7.4375 8.50838 7.4375 8.75V10.5C7.4375 10.7416 7.24162 10.9375 7 10.9375C6.75838 10.9375 6.5625 10.7416 6.5625 10.5V8.75C6.5625 8.50838 6.75838 8.3125 7 8.3125ZM9.1875 7.4375C9.1875 7.19588 8.99162 7 8.75 7C8.50838 7 8.3125 7.19588 8.3125 7.4375V10.5C8.3125 10.7416 8.50838 10.9375 8.75 10.9375C8.99162 10.9375 9.1875 10.7416 9.1875 10.5V7.4375Z" fill="#4E4D4D"/>
<path d="M8.3125 3.0625C8.3125 2.29655 8.03131 1.59628 7.56653 1.05928C9.54924 1.5772 11.1103 3.13826 11.6282 5.12097C11.0912 4.65619 10.3909 4.375 9.625 4.375H8.53125C8.41044 4.375 8.3125 4.27706 8.3125 4.15625V3.0625Z" fill="#4E4D4D"/>
</svg>
