<svg width="15" height="15" viewBox="0 0 15 15" fill="none" xmlns="http://www.w3.org/2000/svg">
<path d="M7.5 9.375C8.53553 9.375 9.375 8.53553 9.375 7.5C9.375 6.46447 8.53553 5.625 7.5 5.625C6.46447 5.625 5.625 6.46447 5.625 7.5C5.625 8.53553 6.46447 9.375 7.5 9.375Z" fill="#4E4D4D"/>
<path fill-rule="evenodd" clip-rule="evenodd" d="M0.827132 7.15419C1.75667 4.35982 4.39244 2.34375 7.50032 2.34375C10.6068 2.34375 13.2415 4.35795 14.1722 7.15028C14.2474 7.37595 14.2475 7.62011 14.1724 7.84582C13.2429 10.6402 10.6071 12.6562 7.49923 12.6562C4.3928 12.6562 1.75802 10.6421 0.827337 7.84972C0.752123 7.62406 0.752052 7.37989 0.827132 7.15419ZM10.7812 7.5C10.7812 9.31218 9.31218 10.7812 7.5 10.7812C5.68782 10.7812 4.21875 9.31218 4.21875 7.5C4.21875 5.68782 5.68782 4.21875 7.5 4.21875C9.31218 4.21875 10.7812 5.68782 10.7812 7.5Z" fill="#4E4D4D"/>
</svg>
