<svg width="14" height="14" viewBox="0 0 14 14" fill="none" xmlns="http://www.w3.org/2000/svg">
<path fill-rule="evenodd" clip-rule="evenodd" d="M1.3125 7C1.3125 3.85888 3.85888 1.3125 7 1.3125C10.1411 1.3125 12.6875 3.85888 12.6875 7C12.6875 10.1411 10.1411 12.6875 7 12.6875C3.85888 12.6875 1.3125 10.1411 1.3125 7ZM6.39114 6.1591C7.05978 5.82478 7.81264 6.4287 7.63133 7.15394L7.21774 8.8083L7.24194 8.7962C7.45805 8.68814 7.72085 8.77574 7.82891 8.99185C7.93697 9.20797 7.84937 9.47076 7.63325 9.57882L7.60905 9.59092C6.94041 9.92524 6.18755 9.32132 6.36886 8.59608L6.78245 6.94172L6.75825 6.95382C6.54214 7.06188 6.27934 6.97428 6.17128 6.75816C6.06323 6.54205 6.15082 6.27925 6.36694 6.1712L6.39114 6.1591ZM7 5.25C7.24162 5.25 7.4375 5.05412 7.4375 4.8125C7.4375 4.57088 7.24162 4.375 7 4.375C6.75838 4.375 6.5625 4.57088 6.5625 4.8125C6.5625 5.05412 6.75838 5.25 7 5.25Z" fill="#4D4D4D"/>
</svg>
