<svg width="15" height="15" viewBox="0 0 15 15" fill="none" xmlns="http://www.w3.org/2000/svg">
<path d="M10.5385 2.80417L11.5932 1.74948C12.0509 1.29184 12.7929 1.29184 13.2505 1.74948C13.7082 2.20713 13.7082 2.94912 13.2505 3.40677L6.61386 10.0434C6.28344 10.3738 5.8759 10.6167 5.42806 10.7501L3.75 11.25L4.24986 9.57195C4.38327 9.12411 4.62615 8.71657 4.95658 8.38614L10.5385 2.80417ZM10.5385 2.80417L12.1875 4.45312M11.25 8.75V11.7187C11.25 12.4954 10.6204 13.125 9.84375 13.125H3.28125C2.5046 13.125 1.875 12.4954 1.875 11.7187V5.15624C1.875 4.37959 2.5046 3.74999 3.28125 3.74999H6.25" stroke="#4E4D4D" stroke-width="1.5" stroke-linecap="round" stroke-linejoin="round"/>
</svg>
