<svg width="15" height="15" viewBox="0 0 15 15" fill="none" xmlns="http://www.w3.org/2000/svg">
<path fill-rule="evenodd" clip-rule="evenodd" d="M0.9375 3.75C0.9375 2.97335 1.5671 2.34375 2.34375 2.34375H12.6562C13.4329 2.34375 14.0625 2.97335 14.0625 3.75V11.25C14.0625 12.0267 13.4329 12.6562 12.6562 12.6562H2.34375C1.5671 12.6562 0.9375 12.0267 0.9375 11.25V3.75ZM1.875 10.0379V11.25C1.875 11.5089 2.08487 11.7188 2.34375 11.7188H12.6562C12.9151 11.7188 13.125 11.5089 13.125 11.25V10.0379L11.4442 8.35708C11.078 7.99096 10.4845 7.99096 10.1183 8.35707L9.56916 8.90625L10.1752 9.51229C10.3583 9.69535 10.3583 9.99215 10.1752 10.1752C9.99215 10.3583 9.69535 10.3583 9.51229 10.1752L6.28791 6.95083C5.9218 6.58471 5.3282 6.58471 4.96209 6.95082L1.875 10.0379ZM8.20312 5.15625C8.20312 4.76792 8.51792 4.45312 8.90625 4.45312C9.29457 4.45312 9.60938 4.76792 9.60938 5.15625C9.60938 5.54458 9.29457 5.85938 8.90625 5.85938C8.51792 5.85938 8.20312 5.54458 8.20312 5.15625Z" fill="#4E4D4D"/>
</svg>
