<svg width="16" height="16" viewBox="0 0 16 16" fill="none" xmlns="http://www.w3.org/2000/svg">
<path fill-rule="evenodd" clip-rule="evenodd" d="M1.5 1.5C1.22386 1.5 1 1.72386 1 2C1 2.27614 1.22386 2.5 1.5 2.5H2V9.5C2 10.6046 2.89543 11.5 4 11.5H4.80629L4.02566 13.8419C3.93833 14.1039 4.07991 14.387 4.34189 14.4743C4.60386 14.5617 4.88702 14.4201 4.97434 14.1581L5.19371 13.5H10.8063L11.0257 14.1581C11.113 14.4201 11.3961 14.5617 11.6581 14.4743C11.9201 14.387 12.0617 14.1039 11.9743 13.8419L11.1937 11.5H12C13.1046 11.5 14 10.6046 14 9.5V2.5H14.5C14.7761 2.5 15 2.27614 15 2C15 1.72386 14.7761 1.5 14.5 1.5H1.5ZM5.52705 12.5L5.86038 11.5H10.1396L10.473 12.5H5.52705ZM10.5 4.5C10.5 4.22386 10.2761 4 10 4C9.72386 4 9.5 4.22386 9.5 4.5V8.5C9.5 8.77614 9.72386 9 10 9C10.2761 9 10.5 8.77614 10.5 8.5V4.5ZM8.5 6C8.5 5.72386 8.27614 5.5 8 5.5C7.72386 5.5 7.5 5.72386 7.5 6V8.5C7.5 8.77614 7.72386 9 8 9C8.27614 9 8.5 8.77614 8.5 8.5V6ZM6.5 7.5C6.5 7.22386 6.27614 7 6 7C5.72386 7 5.5 7.22386 5.5 7.5V8.5C5.5 8.77614 5.72386 9 6 9C6.27614 9 6.5 8.77614 6.5 8.5V7.5Z" fill="#4E4D4D"/>
</svg>
