<svg width="15" height="15" viewBox="0 0 15 15" fill="none" xmlns="http://www.w3.org/2000/svg">
<path fill-rule="evenodd" clip-rule="evenodd" d="M1.40625 1.40625C1.14737 1.40625 0.9375 1.61612 0.9375 1.875C0.9375 2.13388 1.14737 2.34375 1.40625 2.34375H1.875V8.90625C1.875 9.94178 2.71447 10.7812 3.75 10.7812H4.50589L3.77405 12.9768C3.69219 13.2224 3.82492 13.4878 4.07052 13.5697C4.31612 13.6516 4.58158 13.5188 4.66345 13.2732L4.86911 12.6562H10.1309L10.3366 13.2732C10.4184 13.5188 10.6839 13.6516 10.9295 13.5697C11.1751 13.4878 11.3078 13.2224 11.2259 12.9768L10.4941 10.7812H11.25C12.2855 10.7812 13.125 9.94178 13.125 8.90625V2.34375H13.5938C13.8526 2.34375 14.0625 2.13388 14.0625 1.875C14.0625 1.61612 13.8526 1.40625 13.5938 1.40625H1.40625ZM5.49411 10.7812H9.50589L9.81839 11.7187H5.18161L5.49411 10.7812ZM10.5472 5.15917C10.7713 5.02954 10.8479 4.74279 10.7183 4.5187C10.5886 4.29461 10.3019 4.21804 10.0778 4.34767C9.22357 4.8418 8.46979 5.48982 7.8542 6.25384L6.89396 5.2936C6.7109 5.11054 6.4141 5.11054 6.23104 5.2936L4.35604 7.1686C4.17299 7.35165 4.17299 7.64845 4.35604 7.83151C4.5391 8.01457 4.8359 8.01457 5.01896 7.83151L6.5625 6.28796L7.57329 7.29875C7.6714 7.39686 7.80793 7.44647 7.94613 7.43422C8.08434 7.42197 8.21001 7.34912 8.28934 7.23528C8.87935 6.38854 9.65088 5.67767 10.5472 5.15917Z" fill="#4E4D4D"/>
</svg>
