<svg width="15" height="15" viewBox="0 0 15 15" fill="none" xmlns="http://www.w3.org/2000/svg">
<path fill-rule="evenodd" clip-rule="evenodd" d="M1.875 3.75C1.875 2.71447 2.71447 1.875 3.75 1.875H5.15625C6.19178 1.875 7.03125 2.71447 7.03125 3.75V5.15625C7.03125 6.19178 6.19178 7.03125 5.15625 7.03125H3.75C2.71447 7.03125 1.875 6.19178 1.875 5.15625V3.75ZM7.96875 3.75C7.96875 2.71447 8.80822 1.875 9.84375 1.875H11.25C12.2855 1.875 13.125 2.71447 13.125 3.75V5.15625C13.125 6.19178 12.2855 7.03125 11.25 7.03125H9.84375C8.80822 7.03125 7.96875 6.19178 7.96875 5.15625V3.75ZM1.875 9.84375C1.875 8.80822 2.71447 7.96875 3.75 7.96875H5.15625C6.19178 7.96875 7.03125 8.80822 7.03125 9.84375V11.25C7.03125 12.2855 6.19178 13.125 5.15625 13.125H3.75C2.71447 13.125 1.875 12.2855 1.875 11.25V9.84375ZM7.96875 9.84375C7.96875 8.80822 8.80822 7.96875 9.84375 7.96875H11.25C12.2855 7.96875 13.125 8.80822 13.125 9.84375V11.25C13.125 12.2855 12.2855 13.125 11.25 13.125H9.84375C8.80822 13.125 7.96875 12.2855 7.96875 11.25V9.84375Z" fill="#4E4D4D"/>
</svg>
