<svg width="15" height="15" viewBox="0 0 15 15" fill="none" xmlns="http://www.w3.org/2000/svg">
<path d="M3 3.75H12V9H3V3.75Z" fill="#4D4D4D"/>
<path fill-rule="evenodd" clip-rule="evenodd" d="M0.75 2.625C0.75 2.00368 1.25368 1.5 1.875 1.5H13.125C13.7463 1.5 14.25 2.00368 14.25 2.625V10.125C14.25 10.7463 13.7463 11.25 13.125 11.25H9V12.375H11.4375C11.7482 12.375 12 12.6268 12 12.9375C12 13.2482 11.7482 13.5 11.4375 13.5H3.5625C3.25184 13.5 3 13.2482 3 12.9375C3 12.6268 3.25184 12.375 3.5625 12.375H6V11.25H1.875C1.25368 11.25 0.75 10.7463 0.75 10.125V2.625ZM13.125 2.625L1.875 2.625V10.125H13.125V2.625Z" fill="#4D4D4D"/>
</svg>
