<svg width="15" height="15" viewBox="0 0 15 15" fill="none" xmlns="http://www.w3.org/2000/svg">
<path d="M4.6875 2.34375H3.75C2.97335 2.34375 2.34375 2.97335 2.34375 3.75V4.6875M10.3125 2.34375H11.25C12.0267 2.34375 12.6562 2.97335 12.6562 3.75V4.6875M12.6562 10.3125V11.25C12.6562 12.0267 12.0267 12.6562 11.25 12.6562H10.3125M4.6875 12.6562H3.75C2.97335 12.6562 2.34375 12.0267 2.34375 11.25V10.3125M9.375 7.5C9.375 8.53553 8.53553 9.375 7.5 9.375C6.46447 9.375 5.625 8.53553 5.625 7.5C5.625 6.46447 6.46447 5.625 7.5 5.625C8.53553 5.625 9.375 6.46447 9.375 7.5Z" stroke="#4E4D4D" stroke-width="1.5" stroke-linecap="round" stroke-linejoin="round"/>
</svg>
