<svg width="15" height="15" viewBox="0 0 15 15" fill="none" xmlns="http://www.w3.org/2000/svg">
<path fill-rule="evenodd" clip-rule="evenodd" d="M1.40625 3.75C1.40625 2.71447 2.24572 1.875 3.28125 1.875H11.7188C12.7543 1.875 13.5938 2.71447 13.5938 3.75V11.25C13.5938 12.2855 12.7543 13.125 11.7188 13.125H3.28125C2.24572 13.125 1.40625 12.2855 1.40625 11.25V3.75ZM12.6562 5.625H2.34375V11.25C2.34375 11.7678 2.76348 12.1875 3.28125 12.1875H11.7188C12.2365 12.1875 12.6562 11.7678 12.6562 11.25V5.625ZM3.28125 3.28125C3.02237 3.28125 2.8125 3.49112 2.8125 3.75V3.75469C2.8125 4.01357 3.02237 4.22344 3.28125 4.22344H3.28594C3.54482 4.22344 3.75469 4.01357 3.75469 3.75469V3.75C3.75469 3.49112 3.54482 3.28125 3.28594 3.28125H3.28125ZM4.21875 3.75C4.21875 3.49112 4.42862 3.28125 4.6875 3.28125H4.69219C4.95107 3.28125 5.16094 3.49112 5.16094 3.75V3.75469C5.16094 4.01357 4.95107 4.22344 4.69219 4.22344H4.6875C4.42862 4.22344 4.21875 4.01357 4.21875 3.75469V3.75ZM6.09375 3.28125C5.83487 3.28125 5.625 3.49112 5.625 3.75V3.75469C5.625 4.01357 5.83487 4.22344 6.09375 4.22344H6.09844C6.35732 4.22344 6.56719 4.01357 6.56719 3.75469V3.75C6.56719 3.49112 6.35732 3.28125 6.09844 3.28125H6.09375Z" fill="#4D4D4D"/>
</svg>
