<svg width="42" height="42" viewBox="0 0 42 42" fill="none" xmlns="http://www.w3.org/2000/svg">
<path d="M38.0625 11.8125C38.0625 16.1617 34.5367 19.6875 30.1875 19.6875C29.9611 19.6875 29.7369 19.6779 29.5153 19.6592C27.6333 19.5001 25.5528 19.7841 24.3521 21.2421L11.8376 36.4383C10.9906 37.4667 9.7282 38.0625 8.39595 38.0625C5.93362 38.0625 3.9375 36.0664 3.9375 33.6041C3.9375 32.2718 4.53328 31.0094 5.56168 30.1624L20.7579 17.6479C22.2159 16.4472 22.4999 14.3667 22.3408 12.4847C22.3221 12.2631 22.3125 12.0389 22.3125 11.8125C22.3125 7.46326 25.8383 3.9375 30.1875 3.9375C31.3431 3.9375 32.4406 4.18641 33.4292 4.63354L27.6958 10.3669C28.144 12.3194 29.6809 13.8562 31.6333 14.3044L37.3666 8.57113C37.8136 9.55968 38.0625 10.657 38.0625 11.8125Z" stroke="#4D4D4D" stroke-width="1.5" stroke-linecap="round" stroke-linejoin="round"/>
<path d="M8.51766 33.4688H8.53078V33.482H8.51766V33.4688Z" stroke="#4D4D4D" stroke-width="1.5" stroke-linecap="round" stroke-linejoin="round"/>
</svg>
