<svg width="14" height="14" viewBox="0 0 14 14" fill="none" xmlns="http://www.w3.org/2000/svg">
<g clip-path="url(#clip0_38_546)">
<path fill-rule="evenodd" clip-rule="evenodd" d="M7 3.9375C7 2.24613 8.37113 0.875 10.0625 0.875C10.3712 0.875 10.6699 0.920802 10.9519 1.00628C11.0991 1.05088 11.212 1.16946 11.2494 1.31862C11.2868 1.46777 11.2431 1.6256 11.1344 1.73433L9.19848 3.67023C9.23447 3.94766 9.3589 4.21506 9.57192 4.42808C9.78494 4.6411 10.0523 4.76553 10.3298 4.80152L12.2657 2.86561C12.3744 2.75688 12.5322 2.71321 12.6814 2.75059C12.8305 2.78797 12.9491 2.90091 12.9937 3.04807C13.0792 3.33008 13.125 3.62884 13.125 3.9375C13.125 5.62887 11.7539 7 10.0625 7C9.97471 7 9.88769 6.99629 9.80158 6.98902C9.20819 6.93886 8.71137 7.04762 8.45508 7.35882L4.28357 12.4242C3.91816 12.8679 3.37346 13.125 2.79865 13.125C1.73625 13.125 0.875 12.2638 0.875 11.2014C0.875 10.6265 1.13206 10.0818 1.57577 9.71643L6.64118 5.54492C6.95238 5.28863 7.06114 4.79181 7.01098 4.19841C7.0037 4.11231 7 4.02529 7 3.9375ZM2.40172 11.1563C2.40172 10.9147 2.59759 10.7188 2.83922 10.7188H2.84359C3.08522 10.7188 3.28109 10.9147 3.28109 11.1563V11.1607C3.28109 11.4023 3.08522 11.5982 2.84359 11.5982H2.83922C2.59759 11.5982 2.40172 11.4023 2.40172 11.1607V11.1563Z" fill="#4E4D4D"/>
<path d="M5.87765 5.04018L4.59376 3.75629V2.84376C4.59376 2.69008 4.51313 2.54767 4.38135 2.46861L2.19385 1.15611C2.02171 1.05282 1.80136 1.07995 1.6594 1.2219L1.2219 1.6594C1.07995 1.80136 1.05282 2.02171 1.15611 2.19385L2.46861 4.38135C2.54767 4.51313 2.69008 4.59376 2.84376 4.59376H3.75629L4.95914 5.7966L5.87765 5.04018Z" fill="#4E4D4D"/>
<path fill-rule="evenodd" clip-rule="evenodd" d="M7.32428 10.1084L9.7642 12.5483C10.533 13.3172 11.7796 13.3172 12.5484 12.5483C13.3173 11.7795 13.3173 10.5329 12.5484 9.7641L10.6201 7.8358C10.438 7.86162 10.2518 7.87498 10.0626 7.87498C9.95014 7.87498 9.83853 7.87023 9.72794 7.86088C9.49793 7.84144 9.32981 7.85728 9.22186 7.88531C9.16142 7.901 9.1335 7.91656 9.12444 7.9225L7.32428 10.1084ZM9.31569 9.31564C9.48655 9.14479 9.76356 9.14479 9.93441 9.31564L11.0282 10.4094C11.199 10.5802 11.199 10.8573 11.0282 11.0281C10.8573 11.199 10.5803 11.199 10.4094 11.0281L9.31569 9.93436C9.14484 9.7635 9.14484 9.4865 9.31569 9.31564Z" fill="#4E4D4D"/>
</g>
<defs>
<clipPath id="clip0_38_546">
<rect width="14" height="14" fill="white"/>
</clipPath>
</defs>
</svg>
